# xmcd
# 
# Track frame offsets:
#     150
#     19038
#     39390
#     58343
#     80623
#     106005
#     125460
#     146028
#     165313
#     185508
#     209270
#     227053
# 
# Disc length: 3320
# 
# Revision: 3
# Processed by: cddbd v1.5.2PL0 Copyright (c) Steve Scherf et al.
# Submitted via: BonkEnc v1.0.8
# 
DISCID=9d0cf60c
DTITLE=XYZ - Hungry
DYEAR=1991
DGENRE=Hard Rock
TTITLE0=Face Down In The Gutter
TTITLE1=Don't Say No
TTITLE2=Fire And Water
TTITLE3=When The Night Comes Down
TTITLE4=Off To The Sun
TTITLE5=Feels Good
TTITLE6=Shake Down The Walls
TTITLE7=When I Find Love
TTITLE8=H.H. Boogie
TTITLE9=The Sun Also Rises In Hell
TTITLE10=A Roll Of The Dice
TTITLE11=Whiskey On A Heartache
EXTD=
EXTT0=
EXTT1=
EXTT2=
EXTT3=
EXTT4=
EXTT5=
EXTT6=
EXTT7=
EXTT8=
EXTT9=
EXTT10=
EXTT11=
PLAYORDER=
